<svg width="69" height="69" viewBox="0 0 69 70" fill="none" xmlns="http://www.w3.org/2000/svg">
<rect x="1.5" y="1.65991" width="66" height="66" rx="33" stroke="#E0E0E0" stroke-width="3"/>
<g clip-path="url(#clip0_1_405)">
<g clip-path="url(#clip1_1_405)">
<path d="M38.26 25.0105C38.6075 25.0105 38.9444 25.1269 39.2117 25.3398C39.3614 25.4585 39.486 25.6058 39.5782 25.7732C39.6688 25.9382 39.7248 26.12 39.7429 26.3074C39.7609 26.4948 39.7406 26.6839 39.6832 26.8632C39.625 27.0427 39.5305 27.2097 39.4055 27.3539L32.7418 35.0112L39.1678 42.6829C39.2906 42.8281 39.3828 42.9966 39.4389 43.1783C39.4946 43.3586 39.5125 43.5485 39.4917 43.736C39.4708 43.9235 39.4116 44.1048 39.3176 44.2684C39.2234 44.4353 39.0965 44.5814 38.9444 44.698C38.7907 44.8278 38.6103 44.9261 38.4146 44.9862C38.2192 45.046 38.0139 45.0663 37.8106 45.0462C37.6073 45.026 37.4099 44.9657 37.23 44.8688C37.0515 44.7724 36.896 44.6407 36.7719 44.4832L29.5889 35.9114C29.3694 35.6556 29.25 35.3348 29.25 35.0046C29.25 34.6733 29.3694 34.3526 29.588 34.0977L37.0258 25.5259C37.1767 25.3514 37.3663 25.2144 37.5794 25.126C37.7946 25.0366 38.0274 24.9965 38.26 25.0105Z" fill="#8F9498"/>
</g>
</g>
<defs>
<clipPath id="clip0_1_405">
<rect width="11" height="21" fill="white" transform="matrix(-1 0 0 -1 40 45.1599)"/>
</clipPath>
<clipPath id="clip1_1_405">
<rect width="10.5" height="21" fill="white" transform="matrix(-1 0 0 -1 39.75 45.1599)"/>
</clipPath>
</defs>
</svg>
