<svg width="44" height="44" viewBox="0 0 44 44" fill="none" xmlns="http://www.w3.org/2000/svg">
<rect x="0.5" y="0.5" width="43" height="43" rx="21.5" stroke="white"/>
<g clip-path="url(#clip0_1_730)">
<g clip-path="url(#clip1_1_730)">
<path d="M30.5 14.5H13.5C12.6716 14.5 12 15.1716 12 16C12 16.8284 12.6716 17.5 13.5 17.5H30.5C31.3284 17.5 32 16.8284 32 16C32 15.1716 31.3284 14.5 30.5 14.5Z" fill="white"/>
<path d="M26.5 20.5H13.5C12.6716 20.5 12 21.1716 12 22C12 22.8284 12.6716 23.5 13.5 23.5H26.5C27.3284 23.5 28 22.8284 28 22C28 21.1716 27.3284 20.5 26.5 20.5Z" fill="white"/>
<path d="M30.5 26.5H13.5C12.6716 26.5 12 27.1716 12 28C12 28.8284 12.6716 29.5 13.5 29.5H30.5C31.3284 29.5 32 28.8284 32 28C32 27.1716 31.3284 26.5 30.5 26.5Z" fill="white"/>
</g>
</g>
<defs>
<clipPath id="clip0_1_730">
<rect width="20" height="15" fill="white" transform="translate(12 14.5)"/>
</clipPath>
<clipPath id="clip1_1_730">
<rect width="20" height="15" fill="white" transform="translate(12 14.5)"/>
</clipPath>
</defs>
</svg>
